<svg width="18" height="16" viewBox="0 0 18 16" fill="none" xmlns="http://www.w3.org/2000/svg">
<path d="M15.6667 15H2.33333C1.97971 15 1.64057 14.8595 1.39052 14.6095C1.14048 14.3594 1 14.0203 1 13.6667V4.33333C1 3.97971 1.14048 3.64057 1.39052 3.39052C1.64057 3.14048 1.97971 3 2.33333 3H4.99951L6.33285 1H11.6662L12.9995 3H15.6667C16.0203 3 16.3594 3.14048 16.6095 3.39052C16.8595 3.64057 17 3.97971 17 4.33333V13.6667C17 14.0203 16.8595 14.3594 16.6095 14.6095C16.3594 14.8595 16.0203 15 15.6667 15Z" stroke="#A6A6AA" stroke-linecap="round" stroke-linejoin="round"/>
<path d="M9 11.667C10.6569 11.667 12 10.3238 12 8.66699C12 7.01014 10.6569 5.66699 9 5.66699C7.34315 5.66699 6 7.01014 6 8.66699C6 10.3238 7.34315 11.667 9 11.667Z" stroke="#A6A6AA" stroke-linecap="round" stroke-linejoin="round"/>
</svg>
