<svg width="18" height="22" viewBox="0 0 18 22" fill="none" xmlns="http://www.w3.org/2000/svg">
<path d="M13 1H5V5H13V1Z" stroke="#DFDEDE" stroke-linecap="round" stroke-linejoin="round"/>
<path d="M13 2.6001H16.2C16.4122 2.6001 16.6157 2.68438 16.7657 2.83441C16.9157 2.98444 17 3.18792 17 3.4001V20.2001C17 20.4123 16.9157 20.6158 16.7657 20.7658C16.6157 20.9158 16.4122 21.0001 16.2 21.0001H1.8C1.58783 21.0001 1.38434 20.9158 1.23431 20.7658C1.08429 20.6158 1 20.4123 1 20.2001V3.4001C1 3.18792 1.08429 2.98444 1.23431 2.83441C1.38434 2.68438 1.58783 2.6001 1.8 2.6001H5" stroke="#DFDEDE" stroke-linecap="round" stroke-linejoin="round"/>
<path d="M5.7998 13.7998H12.1998" stroke="#DFDEDE" stroke-linecap="round" stroke-linejoin="round"/>
<path d="M5.7998 10.6001H12.1998" stroke="#DFDEDE" stroke-linecap="round" stroke-linejoin="round"/>
</svg>
