<svg width="24" height="24" viewBox="0 0 26 23" fill="none" xmlns="http://www.w3.org/2000/svg">
<path d="M3 18.5L23 18.5C24.1046 18.5 25 17.6046 25 16.5L25 2.5C25 1.39543 24.1046 0.5 23 0.5L3 0.5C1.89543 0.5 1 1.39543 1 2.5L1 16.5C1 17.6046 1.89543 18.5 3 18.5Z" stroke="#FEFEFF" stroke-linecap="round" stroke-linejoin="round"/>
<path d="M17 22.5H9" stroke="#FEFEFF" stroke-linecap="round" stroke-linejoin="round"/>
<path d="M12.5733 9.5L12.5269 14" stroke="#DFDEDE" stroke-width="0.5" stroke-linecap="round" stroke-linejoin="round"/>
<path d="M16.5536 11.5717V7.42827C16.5536 7.36626 16.5372 7.30537 16.5059 7.25181C16.4747 7.19825 16.4298 7.15395 16.3758 7.12344L12.6991 5.04532C12.6466 5.01561 12.5872 5 12.5268 5C12.4664 5 12.4071 5.01561 12.3545 5.04532L8.67786 7.12344C8.62388 7.15395 8.57897 7.19825 8.54772 7.25181C8.51647 7.30537 8.5 7.36626 8.5 7.42827V11.5717C8.5 11.6337 8.51647 11.6946 8.54772 11.7482C8.57897 11.8017 8.62388 11.846 8.67786 11.8766L12.3545 13.9547C12.4071 13.9844 12.4664 14 12.5268 14C12.5872 14 12.6466 13.9844 12.6991 13.9547L16.3758 11.8766C16.4298 11.846 16.4747 11.8017 16.5059 11.7482C16.5372 11.6946 16.5536 11.6337 16.5536 11.5717V11.5717Z" stroke="#DFDEDE" stroke-width="0.5" stroke-linecap="round" stroke-linejoin="round"/>
<path d="M16.5057 7.25048L12.5734 9.49907L8.54834 7.25" stroke="#DFDEDE" stroke-width="0.5" stroke-linecap="round" stroke-linejoin="round"/>
</svg>
