<svg width="17" height="18" viewBox="0 0 17 18" fill="none" xmlns="http://www.w3.org/2000/svg">
<path d="M15.6667 3.6665L1 3.66651" stroke="#DFDEDE" stroke-linecap="round" stroke-linejoin="round"/>
<path d="M6.33301 7.6665V12.9998" stroke="#DFDEDE" stroke-linecap="round" stroke-linejoin="round"/>
<path d="M10.333 7.6665V12.9998" stroke="#DFDEDE" stroke-linecap="round" stroke-linejoin="round"/>
<path d="M14.333 3.66651V16.3332C14.333 16.51 14.2628 16.6796 14.1377 16.8046C14.0127 16.9296 13.8432 16.9998 13.6663 16.9998H2.99967C2.82286 16.9998 2.65329 16.9296 2.52827 16.8046C2.40325 16.6796 2.33301 16.51 2.33301 16.3332V3.6665" stroke="#DFDEDE" stroke-linecap="round" stroke-linejoin="round"/>
<path d="M11.6667 3.66667V2.33333C11.6667 1.97971 11.5262 1.64057 11.2761 1.39052C11.0261 1.14048 10.687 1 10.3333 1H6.33333C5.97971 1 5.64057 1.14048 5.39052 1.39052C5.14048 1.64057 5 1.97971 5 2.33333V3.66667" stroke="#DFDEDE" stroke-linecap="round" stroke-linejoin="round"/>
</svg>
